<svg xmlns="http://www.w3.org/2000/svg" xmlns:xlink="http://www.w3.org/1999/xlink" width="50" zoomAndPan="magnify" viewBox="0 0 75 74.999997" height="50" preserveAspectRatio="xMidYMid meet" version="1.0"><defs><clipPath id="97fc65c6e8"><path d="M 6.003906 6.664062 L 58.980469 6.664062 L 58.980469 59.644531 L 6.003906 59.644531 Z M 6.003906 6.664062 " clip-rule="nonzero"/></clipPath><clipPath id="b1939a3cde"><path d="M 16.191406 17.929688 L 68.996094 17.929688 L 68.996094 68.445312 L 16.191406 68.445312 Z M 16.191406 17.929688 " clip-rule="nonzero"/></clipPath></defs><g clip-path="url(#97fc65c6e8)"><path fill="#ff7f00" d="M 57.382812 32.023438 L 33.574219 8.214844 C 32.605469 7.261719 31.28125 6.664062 29.828125 6.664062 L 11.296875 6.664062 C 8.375 6.664062 6.003906 9.035156 6.003906 11.960938 L 6.003906 30.488281 C 6.003906 31.957031 6.601562 33.28125 7.566406 34.234375 L 31.390625 58.054688 C 32.339844 59.007812 33.664062 59.605469 35.121094 59.605469 C 36.578125 59.605469 37.914062 59.007812 38.867188 58.054688 L 57.394531 39.527344 C 58.347656 38.5625 58.945312 37.238281 58.945312 35.78125 C 58.945312 34.3125 58.347656 32.988281 57.382812 32.023438 Z M 15.269531 19.898438 C 13.070312 19.898438 11.296875 18.125 11.296875 15.929688 C 11.296875 13.734375 13.070312 11.960938 15.269531 11.960938 C 17.464844 11.960938 19.238281 13.734375 19.238281 15.929688 C 19.238281 18.125 17.464844 19.898438 15.269531 19.898438 Z M 15.269531 19.898438 " fill-opacity="1" fill-rule="nonzero"/></g><g clip-path="url(#b1939a3cde)"><path fill="#231f20" d="M 17.792969 17.941406 C 17.875 17.945312 17.957031 17.953125 18.035156 17.964844 C 18.039062 17.964844 18.039062 17.964844 18.039062 17.964844 L 26.101562 19.34375 C 26.613281 19.429688 27.042969 19.78125 27.230469 20.265625 C 27.230469 20.265625 27.230469 20.269531 27.230469 20.269531 L 30.972656 29.859375 L 67.46875 30.769531 C 67.886719 30.78125 68.28125 30.96875 68.554688 31.285156 C 68.828125 31.601562 68.960938 32.023438 68.910156 32.441406 L 66.894531 49.105469 C 66.8125 49.804688 66.234375 50.359375 65.53125 50.414062 L 39.511719 52.484375 L 34.355469 56.539062 C 34.347656 56.546875 34.34375 56.550781 34.335938 56.554688 C 34.332031 56.558594 34.324219 56.558594 34.320312 56.5625 C 34.3125 56.566406 34.308594 56.574219 34.300781 56.578125 C 33.359375 57.277344 33.125 58.234375 33.257812 58.769531 C 33.335938 59.070312 33.449219 59.292969 33.726562 59.464844 C 34 59.636719 34.476562 59.761719 35.289062 59.714844 C 35.289062 59.714844 35.292969 59.714844 35.296875 59.714844 C 35.324219 59.714844 35.351562 59.714844 35.378906 59.714844 C 35.382812 59.714844 35.386719 59.714844 35.390625 59.714844 L 66.425781 59.804688 L 66.429688 59.804688 C 67.242188 59.800781 67.929688 60.484375 67.925781 61.296875 C 67.925781 62.113281 67.234375 62.796875 66.417969 62.785156 L 66.414062 62.785156 L 64.148438 62.78125 C 64.988281 63.316406 65.554688 64.257812 65.554688 65.324219 C 65.554688 66.984375 64.195312 68.34375 62.535156 68.34375 C 60.875 68.34375 59.515625 66.984375 59.515625 65.324219 C 59.515625 64.25 60.082031 63.300781 60.933594 62.765625 L 35.378906 62.691406 C 36.296875 63.210938 36.925781 64.199219 36.925781 65.324219 C 36.925781 66.984375 35.566406 68.34375 33.90625 68.34375 C 32.246094 68.34375 30.886719 66.984375 30.886719 65.324219 C 30.886719 63.882812 31.910156 62.667969 33.269531 62.371094 C 31.984375 61.917969 31 60.980469 30.386719 59.550781 C 30.378906 59.535156 30.371094 59.515625 30.367188 59.496094 C 29.898438 57.625 30.726562 55.589844 32.4375 54.265625 C 32.445312 54.261719 32.449219 54.257812 32.453125 54.253906 C 32.457031 54.25 32.457031 54.242188 32.460938 54.242188 C 32.476562 54.222656 32.492188 54.207031 32.511719 54.191406 L 36.164062 51.324219 L 24.769531 22.136719 L 17.539062 20.902344 C 17.539062 20.902344 17.535156 20.902344 17.535156 20.902344 C 16.773438 20.78125 16.21875 20.074219 16.285156 19.304688 C 16.351562 18.535156 17.019531 17.933594 17.792969 17.941406 Z M 32.070312 32.160156 L 34.171875 37.546875 L 36.910156 37.546875 L 36.910156 32.28125 Z M 37.957031 32.308594 L 37.957031 37.546875 L 43.015625 37.546875 L 43.015625 32.4375 Z M 44.0625 32.457031 L 44.0625 37.546875 L 49.117188 37.546875 L 49.117188 32.585938 Z M 50.164062 32.613281 L 50.164062 37.546875 L 55.222656 37.546875 L 55.222656 32.738281 Z M 56.265625 32.765625 L 56.265625 37.546875 L 61.324219 37.546875 L 61.324219 32.894531 Z M 62.371094 32.914062 L 62.371094 37.546875 L 66.078125 37.546875 L 66.625 33.023438 Z M 65.953125 38.589844 L 62.371094 38.589844 L 62.371094 43.320312 L 65.382812 43.320312 Z M 61.324219 38.589844 L 56.265625 38.589844 L 56.265625 43.320312 L 61.324219 43.320312 Z M 55.222656 38.589844 L 50.164062 38.589844 L 50.164062 43.320312 L 55.222656 43.320312 Z M 49.117188 38.589844 L 44.0625 38.589844 L 44.0625 43.320312 L 49.117188 43.320312 Z M 43.015625 38.589844 L 37.957031 38.589844 L 37.957031 43.320312 L 43.015625 43.320312 Z M 36.910156 38.589844 L 34.574219 38.589844 L 36.421875 43.320312 L 36.910156 43.320312 Z M 65.253906 44.363281 L 62.371094 44.363281 L 62.371094 47.757812 L 64.867188 47.558594 Z M 61.324219 44.363281 L 56.265625 44.363281 L 56.265625 48.242188 L 61.324219 47.839844 Z M 55.21875 44.363281 L 50.164062 44.363281 L 50.164062 48.726562 L 55.21875 48.328125 Z M 49.117188 44.363281 L 44.058594 44.363281 L 44.058594 49.214844 L 49.117188 48.8125 Z M 43.015625 44.363281 L 37.957031 44.363281 L 37.957031 47.242188 L 38.917969 49.699219 C 39.042969 49.640625 39.175781 49.601562 39.316406 49.589844 L 43.015625 49.296875 Z M 36.910156 44.363281 L 36.835938 44.363281 L 36.910156 44.574219 Z M 62.53125 63.550781 C 61.546875 63.550781 60.757812 64.335938 60.757812 65.324219 C 60.757812 66.3125 61.546875 67.09375 62.53125 67.09375 C 63.519531 67.09375 64.308594 66.3125 64.308594 65.324219 C 64.308594 64.335938 63.519531 63.550781 62.53125 63.550781 Z M 33.90625 63.550781 C 32.917969 63.550781 32.128906 64.335938 32.128906 65.324219 C 32.128906 66.3125 32.917969 67.09375 33.90625 67.09375 C 34.890625 67.09375 35.679688 66.3125 35.679688 65.324219 C 35.679688 64.335938 34.890625 63.550781 33.90625 63.550781 Z M 62.53125 64.390625 C 63.066406 64.390625 63.496094 64.820312 63.496094 65.355469 C 63.496094 65.890625 63.066406 66.316406 62.53125 66.316406 C 61.996094 66.316406 61.566406 65.890625 61.566406 65.355469 C 61.566406 64.820312 61.996094 64.390625 62.53125 64.390625 Z M 33.90625 64.390625 C 34.441406 64.390625 34.867188 64.820312 34.867188 65.355469 C 34.867188 65.890625 34.441406 66.316406 33.90625 66.316406 C 33.367188 66.316406 32.941406 65.890625 32.941406 65.355469 C 32.941406 64.820312 33.367188 64.390625 33.90625 64.390625 Z M 33.90625 64.390625 " fill-opacity="1" fill-rule="nonzero"/></g></svg>